<svg xmlns="http://www.w3.org/2000/svg" width="1000" height="600">
<rect width="100%" height="100%" fill="white"/>
<text x="500.0" y="28" text-anchor="middle" font-size="18">EGG production dynamics - BHP</text>
<line x1="80" y1="535" x2="970" y2="535" stroke="black"/>
<line x1="80" y1="55" x2="80" y2="535" stroke="black"/>
<text x="500.0" y="580" text-anchor="middle" font-size="14">Time (days)</text>
<text x="18" y="300.0" text-anchor="middle" font-size="14" transform="rotate(-90 18 300.0)">BHP</text>
<polyline fill="none" stroke="#1f77b4" stroke-width="1.5" points="80.00,72.81 80.99,87.38 82.23,116.78 84.70,139.02 87.17,147.93 89.64,152.98 92.12,156.63 94.59,159.79 97.06,163.31 99.54,166.59 102.01,169.64 105.72,172.27 109.43,174.50 113.14,175.86 116.85,173.57 120.56,169.54 124.27,166.34 127.97,164.15 131.68,162.98 135.39,161.13 139.10,159.28 142.81,157.73 146.52,156.08 150.23,154.86 153.94,153.67 161.36,150.61 168.78,140.85 176.20,120.70 183.61,103.93 191.03,92.66 198.45,88.92 205.87,82.66 213.29,73.24 220.71,63.48 228.13,56.80 235.55,55.00 242.96,58.23 250.38,62.80 257.80,67.61 265.22,73.60 272.64,79.93 280.06,86.12 287.48,92.14 294.90,97.84 302.31,103.19 309.73,108.16 317.15,112.99 324.57,117.53 331.99,121.91 339.41,126.06 346.83,130.08 354.25,134.18 361.66,138.23 369.08,142.03 376.50,145.72 383.92,149.28 391.34,152.72 398.76,156.09 406.18,159.50 413.60,162.97 421.01,166.43 428.43,169.79 435.85,173.08 443.27,176.24 450.69,179.23 458.11,182.11 465.53,184.92 472.95,187.61 480.36,190.18 487.78,192.63 495.20,194.97 502.62,197.22 510.04,199.39 517.46,201.49 524.88,203.53 532.30,205.52 539.71,207.46 547.13,209.37 554.55,211.24 561.97,213.06 569.39,214.84 576.81,216.61 584.23,218.34 591.64,220.06 599.06,221.75 606.48,223.41 613.90,225.03 621.32,226.62 628.74,228.17 636.16,229.70 643.58,231.21 650.99,232.68 658.41,234.13 665.83,235.54 673.25,236.92 680.67,238.27 688.09,239.60 695.51,240.89 702.93,242.17 710.34,243.42 717.76,244.65 725.18,245.86 732.60,247.05 740.02,248.21 747.44,249.35 754.86,250.47 762.28,251.57 769.69,252.66 777.11,253.73 784.53,254.78 791.95,255.81 799.37,256.83 806.79,257.82 814.21,258.81 821.63,259.77 829.04,260.72 836.46,261.64 843.88,262.55 851.30,263.46 858.72,264.34 866.14,265.22 873.56,266.08 880.98,266.94 888.39,267.77 895.81,268.59 903.23,269.40 910.65,270.19 918.07,270.96 925.49,271.73 932.91,272.48 940.33,273.22 947.74,273.94 955.16,274.66 962.58,275.36 970.00,276.05"/>
<polyline fill="none" stroke="#d62728" stroke-width="1.5" points="80.00,243.07 80.99,240.81 82.23,250.70 84.70,267.17 87.17,275.88 89.64,282.67 92.12,287.71 94.59,291.47 97.06,294.79 99.54,297.65 102.01,300.23 105.72,303.09 109.43,304.96 113.14,305.45 116.85,301.03 120.56,293.68 124.27,288.28 127.97,285.41 131.68,284.03 135.39,281.54 139.10,279.87 142.81,278.82 146.52,277.62 150.23,277.13 153.94,276.92 161.36,277.23 168.78,274.63 176.20,265.63 183.61,258.46 191.03,254.28 198.45,253.79 205.87,249.37 213.29,242.09 220.71,235.10 228.13,229.97 235.55,227.73 242.96,228.72 250.38,230.67 257.80,232.68 265.22,235.44 272.64,238.36 280.06,241.22 287.48,244.12 294.90,246.91 302.31,249.57 309.73,252.06 317.15,254.55 324.57,257.01 331.99,259.41 339.41,261.76 346.83,264.09 354.25,266.50 361.66,268.87 369.08,271.15 376.50,273.40 383.92,275.63 391.34,277.84 398.76,280.10 406.18,282.43 413.60,284.89 421.01,287.39 428.43,289.84 435.85,292.26 443.27,294.56 450.69,296.73 458.11,298.79 465.53,300.82 472.95,302.77 480.36,304.62 487.78,306.38 495.20,308.04 502.62,309.62 510.04,311.14 517.46,312.60 524.88,314.02 532.30,315.39 539.71,316.71 547.13,318.02 554.55,319.29 561.97,320.52 569.39,321.74 576.81,322.96 584.23,324.16 591.64,325.36 599.06,326.54 606.48,327.70 613.90,328.83 621.32,329.94 628.74,331.03 636.16,332.11 643.58,333.17 650.99,334.21 658.41,335.22 665.83,336.22 673.25,337.20 680.67,338.16 688.09,339.10 695.51,340.03 702.93,340.94 710.34,341.84 717.76,342.72 725.18,343.58 732.60,344.43 740.02,345.26 747.44,346.07 754.86,346.87 762.28,347.67 769.69,348.46 777.11,349.24 784.53,350.01 791.95,350.76 799.37,351.49 806.79,352.23 814.21,352.95 821.63,353.66 829.04,354.35 836.46,355.03 843.88,355.70 851.30,356.35 858.72,356.99 866.14,357.62 873.56,358.25 880.98,358.86 888.39,359.46 895.81,360.05 903.23,360.62 910.65,361.19 918.07,361.74 925.49,362.28 932.91,362.82 940.33,363.35 947.74,363.86 955.16,364.37 962.58,364.87 970.00,365.36"/>
<polyline fill="none" stroke="#2ca02c" stroke-width="1.5" points="80.00,191.17 80.99,203.71 82.23,225.83 84.70,241.86 87.17,247.13 89.64,250.46 92.12,252.65 94.59,254.07 97.06,255.33 99.54,256.29 102.01,256.69 105.72,256.77 109.43,256.49 113.14,255.65 116.85,251.81 120.56,246.29 124.27,241.80 127.97,238.49 131.68,236.12 135.39,232.76 139.10,229.72 142.81,227.20 146.52,224.63 150.23,222.43 153.94,220.35 161.36,215.64 168.78,205.68 176.20,186.97 183.61,170.90 191.03,159.14 198.45,153.72 205.87,144.45 213.29,130.63 220.71,115.65 228.13,104.28 235.55,98.70 242.96,99.42 250.38,102.11 257.80,105.40 265.22,110.26 272.64,115.75 280.06,121.36 287.48,126.99 294.90,132.38 302.31,137.49 309.73,142.27 317.15,146.93 324.57,151.34 331.99,155.58 339.41,159.62 346.83,163.52 354.25,167.49 361.66,171.43 369.08,175.13 376.50,178.75 383.92,182.25 391.34,185.63 398.76,188.95 406.18,192.30 413.60,195.70 421.01,199.08 428.43,202.36 435.85,205.58 443.27,208.66 450.69,211.59 458.11,214.40 465.53,217.14 472.95,219.77 480.36,222.28 487.78,224.67 495.20,226.95 502.62,229.15 510.04,231.27 517.46,233.32 524.88,235.31 532.30,237.26 539.71,239.16 547.13,241.03 554.55,242.86 561.97,244.65 569.39,246.40 576.81,248.13 584.23,249.84 591.64,251.53 599.06,253.20 606.48,254.83 613.90,256.43 621.32,258.00 628.74,259.53 636.16,261.04 643.58,262.52 650.99,263.98 658.41,265.40 665.83,266.80 673.25,268.16 680.67,269.50 688.09,270.80 695.51,272.08 702.93,273.34 710.34,274.57 717.76,275.80 725.18,276.99 732.60,278.16 740.02,279.30 747.44,280.42 754.86,281.52 762.28,282.61 769.69,283.69 777.11,284.74 784.53,285.77 791.95,286.79 799.37,287.78 806.79,288.76 814.21,289.73 821.63,290.68 829.04,291.60 836.46,292.51 843.88,293.41 851.30,294.30 858.72,295.17 866.14,296.03 873.56,296.88 880.98,297.72 888.39,298.54 895.81,299.34 903.23,300.13 910.65,300.91 918.07,301.67 925.49,302.41 932.91,303.15 940.33,303.87 947.74,304.59 955.16,305.29 962.58,305.97 970.00,306.65"/>
<polyline fill="none" stroke="#9467bd" stroke-width="1.5" points="80.00,92.65 80.99,121.31 82.23,169.55 84.70,209.70 87.17,225.66 89.64,236.46 92.12,244.86 94.59,251.71 97.06,257.17 99.54,261.48 102.01,265.15 105.72,269.28 109.43,272.33 113.14,274.44 116.85,272.15 120.56,267.19 124.27,263.10 127.97,260.30 131.68,258.62 135.39,255.33 139.10,252.55 142.81,250.67 146.52,249.06 150.23,248.17 153.94,247.64 161.36,247.29 168.78,244.89 176.20,237.21 183.61,230.89 191.03,226.83 198.45,225.49 205.87,216.03 213.29,201.20 220.71,186.26 228.13,174.36 235.55,167.25 242.96,165.66 250.38,166.10 257.80,167.03 265.22,169.63 272.64,172.99 280.06,176.73 287.48,180.74 294.90,184.71 302.31,188.52 309.73,192.06 317.15,195.57 324.57,198.92 331.99,202.14 339.41,205.23 346.83,208.23 354.25,211.30 361.66,214.37 369.08,217.32 376.50,220.25 383.92,223.16 391.34,226.00 398.76,228.84 406.18,231.73 413.60,234.70 421.01,237.64 428.43,240.49 435.85,243.28 443.27,245.95 450.69,248.47 458.11,250.87 465.53,253.23 472.95,255.48 480.36,257.62 487.78,259.66 495.20,261.60 502.62,263.46 510.04,265.24 517.46,266.97 524.88,268.65 532.30,270.28 539.71,271.88 547.13,273.45 554.55,274.99 561.97,276.50 569.39,277.98 576.81,279.47 584.23,280.95 591.64,282.42 599.06,283.87 606.48,285.29 613.90,286.69 621.32,288.06 628.74,289.41 636.16,290.73 643.58,292.04 650.99,293.33 658.41,294.58 665.83,295.82 673.25,297.03 680.67,298.21 688.09,299.37 695.51,300.51 702.93,301.64 710.34,302.73 717.76,303.82 725.18,304.87 732.60,305.91 740.02,306.92 747.44,307.91 754.86,308.88 762.28,309.84 769.69,310.79 777.11,311.73 784.53,312.64 791.95,313.54 799.37,314.41 806.79,315.28 814.21,316.13 821.63,316.96 829.04,317.78 836.46,318.58 843.88,319.36 851.30,320.13 858.72,320.89 866.14,321.63 873.56,322.36 880.98,323.08 888.39,323.78 895.81,324.47 903.23,325.14 910.65,325.80 918.07,326.45 925.49,327.08 932.91,327.71 940.33,328.32 947.74,328.92 955.16,329.51 962.58,330.09 970.00,330.66"/>
<polyline fill="none" stroke="#ff7f0e" stroke-width="1.5" points="80.00,316.39 80.99,319.10 82.23,326.05 84.70,333.09 87.17,336.23 89.64,337.44 92.12,338.45 94.59,339.32 97.06,340.18 99.54,340.84 102.01,341.26 105.72,341.51 109.43,341.00 113.14,339.60 116.85,333.02 120.56,323.46 124.27,315.73 127.97,310.12 131.68,306.04 135.39,300.67 139.10,296.12 142.81,292.63 146.52,289.76 150.23,287.80 153.94,286.53 161.36,285.76 168.78,284.96 176.20,281.11 183.61,278.31 191.03,276.90 198.45,276.50 205.87,266.40 213.29,253.18 220.71,243.33 228.13,236.45 235.55,233.13 242.96,233.77 250.38,235.78 257.80,237.77 265.22,240.90 272.64,244.40 280.06,248.09 287.48,251.92 294.90,255.65 302.31,259.20 309.73,262.49 317.15,265.72 324.57,268.82 331.99,271.76 339.41,274.59 346.83,277.32 354.25,280.04 361.66,282.69 369.08,285.23 376.50,287.73 383.92,290.22 391.34,292.65 398.76,295.07 406.18,297.49 413.60,299.95 421.01,302.36 428.43,304.61 435.85,306.79 443.27,308.81 450.69,310.70 458.11,312.47 465.53,314.21 472.95,315.85 480.36,317.40 487.78,318.86 495.20,320.24 502.62,321.56 510.04,322.84 517.46,324.08 524.88,325.28 532.30,326.44 539.71,327.58 547.13,328.72 554.55,329.83 561.97,330.93 569.39,332.03 576.81,333.15 584.23,334.27 591.64,335.39 599.06,336.52 606.48,337.63 613.90,338.74 621.32,339.83 628.74,340.91 636.16,341.98 643.58,343.05 650.99,344.10 658.41,345.14 665.83,346.17 673.25,347.20 680.67,348.21 688.09,349.20 695.51,350.18 702.93,351.16 710.34,352.12 717.76,353.06 725.18,353.99 732.60,354.90 740.02,355.79 747.44,356.67 754.86,357.53 762.28,358.39 769.69,359.25 777.11,360.09 784.53,360.92 791.95,361.74 799.37,362.53 806.79,363.33 814.21,364.11 821.63,364.88 829.04,365.63 836.46,366.36 843.88,367.08 851.30,367.79 858.72,368.48 866.14,369.16 873.56,369.83 880.98,370.48 888.39,371.13 895.81,371.76 903.23,372.37 910.65,372.98 918.07,373.57 925.49,374.15 932.91,374.72 940.33,375.28 947.74,375.84 955.16,376.38 962.58,376.91 970.00,377.43"/>
<polyline fill="none" stroke="#17becf" stroke-width="1.5" points="80.00,140.77 80.99,150.95 82.23,171.46 84.70,186.26 87.17,192.82 89.64,196.04 92.12,198.73 94.59,201.87 97.06,204.05 99.54,206.23 102.01,208.04 105.72,210.29 109.43,211.58 113.14,212.71 116.85,210.68 120.56,206.90 124.27,203.91 127.97,202.02 131.68,201.10 135.39,199.02 139.10,197.37 142.81,196.24 146.52,195.26 150.23,194.66 153.94,194.13 161.36,192.51 168.78,186.98 176.20,174.38 183.61,163.02 191.03,154.29 198.45,149.50 205.87,138.54 213.29,120.64 220.71,99.51 228.13,82.59 235.55,73.01 242.96,71.63 250.38,73.07 257.80,75.46 265.22,79.69 272.64,84.78 280.06,90.26 287.48,96.00 294.90,101.55 302.31,106.88 309.73,111.90 317.15,116.85 324.57,121.57 331.99,126.09 339.41,130.43 346.83,134.61 354.25,138.82 361.66,142.98 369.08,146.93 376.50,150.82 383.92,154.61 391.34,158.28 398.76,161.87 406.18,165.45 413.60,169.07 421.01,172.65 428.43,176.12 435.85,179.52 443.27,182.77 450.69,185.88 458.11,188.85 465.53,191.74 472.95,194.52 480.36,197.17 487.78,199.70 495.20,202.12 502.62,204.46 510.04,206.72 517.46,208.91 524.88,211.03 532.30,213.11 539.71,215.14 547.13,217.14 554.55,219.09 561.97,221.00 569.39,222.87 576.81,224.72 584.23,226.56 591.64,228.38 599.06,230.17 606.48,231.92 613.90,233.64 621.32,235.32 628.74,236.95 636.16,238.57 643.58,240.16 650.99,241.72 658.41,243.25 665.83,244.75 673.25,246.21 680.67,247.65 688.09,249.05 695.51,250.42 702.93,251.77 710.34,253.09 717.76,254.40 725.18,255.68 732.60,256.94 740.02,258.16 747.44,259.36 754.86,260.54 762.28,261.70 769.69,262.85 777.11,263.97 784.53,265.07 791.95,266.16 799.37,267.22 806.79,268.27 814.21,269.30 821.63,270.31 829.04,271.30 836.46,272.27 843.88,273.23 851.30,274.17 858.72,275.10 866.14,276.02 873.56,276.92 880.98,277.81 888.39,278.68 895.81,279.53 903.23,280.37 910.65,281.19 918.07,282.00 925.49,282.78 932.91,283.56 940.33,284.33 947.74,285.09 955.16,285.83 962.58,286.56 970.00,287.28"/>
<polyline fill="none" stroke="#1f77b4" stroke-width="1.5" points="80.00,80.41 80.99,108.43 82.23,156.48 84.70,193.86 87.17,206.26 89.64,213.96 92.12,219.39 94.59,223.55 97.06,226.92 99.54,229.44 102.01,231.25 105.72,233.13 109.43,234.61 113.14,235.72 116.85,233.39 120.56,228.89 124.27,225.33 127.97,222.83 131.68,221.20 135.39,218.39 139.10,216.07 142.81,214.47 146.52,213.13 150.23,212.23 153.94,211.65 161.36,211.07 168.78,209.08 176.20,203.28 183.61,198.53 191.03,195.26 198.45,193.10 205.87,178.09 213.29,155.85 220.71,134.42 228.13,117.39 235.55,107.05 242.96,104.16 250.38,104.15 257.80,104.67 265.22,107.44 272.64,111.28 280.06,115.80 287.48,120.74 294.90,125.69 302.31,130.51 309.73,135.03 317.15,139.58 324.57,143.94 331.99,148.12 339.41,152.17 346.83,156.10 354.25,160.05 361.66,163.96 369.08,167.72 376.50,171.44 383.92,175.13 391.34,178.74 398.76,182.28 406.18,185.79 413.60,189.33 421.01,192.79 428.43,196.12 435.85,199.40 443.27,202.52 450.69,205.49 458.11,208.30 465.53,211.06 472.95,213.69 480.36,216.19 487.78,218.58 495.20,220.86 502.62,223.05 510.04,225.17 517.46,227.22 524.88,229.21 532.30,231.14 539.71,233.03 547.13,234.89 554.55,236.71 561.97,238.48 569.39,240.22 576.81,241.95 584.23,243.67 591.64,245.37 599.06,247.04 606.48,248.68 613.90,250.29 621.32,251.86 628.74,253.40 636.16,254.91 643.58,256.40 650.99,257.86 658.41,259.29 665.83,260.69 673.25,262.07 680.67,263.41 688.09,264.73 695.51,266.02 702.93,267.29 710.34,268.53 717.76,269.75 725.18,270.94 732.60,272.11 740.02,273.26 747.44,274.37 754.86,275.47 762.28,276.55 769.69,277.62 777.11,278.67 784.53,279.70 791.95,280.71 799.37,281.70 806.79,282.67 814.21,283.63 821.63,284.57 829.04,285.49 836.46,286.39 843.88,287.27 851.30,288.14 858.72,288.99 866.14,289.83 873.56,290.66 880.98,291.48 888.39,292.27 895.81,293.06 903.23,293.82 910.65,294.57 918.07,295.31 925.49,296.03 932.91,296.74 940.33,297.44 947.74,298.13 955.16,298.81 962.58,299.47 970.00,300.13"/>
<polyline fill="none" stroke="#d62728" stroke-width="1.5" points="80.00,106.38 80.99,117.14 82.23,140.53 84.70,158.81 87.17,166.01 89.64,170.70 92.12,173.92 94.59,176.62 97.06,178.06 99.54,179.24 102.01,179.39 105.72,179.34 109.43,178.55 113.14,178.39 116.85,174.19 120.56,168.86 124.27,164.31 127.97,161.66 131.68,160.25 135.39,157.79 139.10,156.32 142.81,155.75 146.52,155.25 150.23,155.62 153.94,156.44 161.36,157.92 168.78,158.16 176.20,154.26 183.61,150.13 191.03,146.71 198.45,143.02 205.87,123.00 213.29,98.75 220.71,81.57 228.13,69.63 235.55,63.06 242.96,62.44 250.38,64.23 257.80,66.16 265.22,70.11 272.64,74.94 280.06,80.37 287.48,86.11 294.90,91.77 302.31,97.25 309.73,102.35 317.15,107.41 324.57,112.21 331.99,116.75 339.41,121.12 346.83,125.36 354.25,129.59 361.66,133.79 369.08,137.83 376.50,141.82 383.92,145.80 391.34,149.71 398.76,153.54 406.18,157.32 413.60,161.09 421.01,164.78 428.43,168.33 435.85,171.82 443.27,175.13 450.69,178.28 458.11,181.28 465.53,184.21 472.95,187.01 480.36,189.68 487.78,192.23 495.20,194.67 502.62,197.01 510.04,199.28 517.46,201.48 524.88,203.61 532.30,205.67 539.71,207.69 547.13,209.68 554.55,211.61 561.97,213.49 569.39,215.34 576.81,217.18 584.23,219.01 591.64,220.81 599.06,222.59 606.48,224.32 613.90,226.03 621.32,227.69 628.74,229.32 636.16,230.92 643.58,232.50 650.99,234.05 658.41,235.56 665.83,237.04 673.25,238.51 680.67,239.95 688.09,241.35 695.51,242.73 702.93,244.08 710.34,245.41 717.76,246.71 725.18,247.98 732.60,249.23 740.02,250.45 747.44,251.64 754.86,252.81 762.28,253.97 769.69,255.11 777.11,256.24 784.53,257.34 791.95,258.42 799.37,259.49 806.79,260.53 814.21,261.56 821.63,262.57 829.04,263.56 836.46,264.52 843.88,265.47 851.30,266.41 858.72,267.33 866.14,268.23 873.56,269.12 880.98,270.00 888.39,270.86 895.81,271.70 903.23,272.53 910.65,273.34 918.07,274.13 925.49,274.91 932.91,275.68 940.33,276.44 947.74,277.18 955.16,277.91 962.58,278.63 970.00,279.34"/>
<polyline fill="none" stroke="#2ca02c" stroke-width="1.5" points="80.00,535.00 80.99,535.00 82.23,535.00 84.70,535.00 87.17,535.00 89.64,535.00 92.12,535.00 94.59,535.00 97.06,535.00 99.54,535.00 102.01,535.00 105.72,535.00 109.43,535.00 113.14,535.00 116.85,535.00 120.56,535.00 124.27,535.00 127.97,535.00 131.68,535.00 135.39,535.00 139.10,535.00 142.81,535.00 146.52,535.00 150.23,535.00 153.94,535.00 161.36,535.00 168.78,535.00 176.20,535.00 183.61,535.00 191.03,535.00 198.45,535.00 205.87,535.00 213.29,535.00 220.71,535.00 228.13,535.00 235.55,535.00 242.96,535.00 250.38,535.00 257.80,535.00 265.22,535.00 272.64,535.00 280.06,535.00 287.48,535.00 294.90,535.00 302.31,535.00 309.73,535.00 317.15,535.00 324.57,535.00 331.99,535.00 339.41,535.00 346.83,535.00 354.25,535.00 361.66,535.00 369.08,535.00 376.50,535.00 383.92,535.00 391.34,535.00 398.76,535.00 406.18,535.00 413.60,535.00 421.01,535.00 428.43,535.00 435.85,535.00 443.27,535.00 450.69,535.00 458.11,535.00 465.53,535.00 472.95,535.00 480.36,535.00 487.78,535.00 495.20,535.00 502.62,535.00 510.04,535.00 517.46,535.00 524.88,535.00 532.30,535.00 539.71,535.00 547.13,535.00 554.55,535.00 561.97,535.00 569.39,535.00 576.81,535.00 584.23,535.00 591.64,535.00 599.06,535.00 606.48,535.00 613.90,535.00 621.32,535.00 628.74,535.00 636.16,535.00 643.58,535.00 650.99,535.00 658.41,535.00 665.83,535.00 673.25,535.00 680.67,535.00 688.09,535.00 695.51,535.00 702.93,535.00 710.34,535.00 717.76,535.00 725.18,535.00 732.60,535.00 740.02,535.00 747.44,535.00 754.86,535.00 762.28,535.00 769.69,535.00 777.11,535.00 784.53,535.00 791.95,535.00 799.37,535.00 806.79,535.00 814.21,535.00 821.63,535.00 829.04,535.00 836.46,535.00 843.88,535.00 851.30,535.00 858.72,535.00 866.14,535.00 873.56,535.00 880.98,535.00 888.39,535.00 895.81,535.00 903.23,535.00 910.65,535.00 918.07,535.00 925.49,535.00 932.91,535.00 940.33,535.00 947.74,535.00 955.16,535.00 962.58,535.00 970.00,535.00"/>
<polyline fill="none" stroke="#9467bd" stroke-width="1.5" points="80.00,535.00 80.99,535.00 82.23,535.00 84.70,535.00 87.17,535.00 89.64,535.00 92.12,535.00 94.59,535.00 97.06,535.00 99.54,535.00 102.01,535.00 105.72,535.00 109.43,535.00 113.14,535.00 116.85,535.00 120.56,535.00 124.27,535.00 127.97,535.00 131.68,535.00 135.39,535.00 139.10,535.00 142.81,535.00 146.52,535.00 150.23,535.00 153.94,535.00 161.36,535.00 168.78,535.00 176.20,535.00 183.61,535.00 191.03,535.00 198.45,535.00 205.87,535.00 213.29,535.00 220.71,535.00 228.13,535.00 235.55,535.00 242.96,535.00 250.38,535.00 257.80,535.00 265.22,535.00 272.64,535.00 280.06,535.00 287.48,535.00 294.90,535.00 302.31,535.00 309.73,535.00 317.15,535.00 324.57,535.00 331.99,535.00 339.41,535.00 346.83,535.00 354.25,535.00 361.66,535.00 369.08,535.00 376.50,535.00 383.92,535.00 391.34,535.00 398.76,535.00 406.18,535.00 413.60,535.00 421.01,535.00 428.43,535.00 435.85,535.00 443.27,535.00 450.69,535.00 458.11,535.00 465.53,535.00 472.95,535.00 480.36,535.00 487.78,535.00 495.20,535.00 502.62,535.00 510.04,535.00 517.46,535.00 524.88,535.00 532.30,535.00 539.71,535.00 547.13,535.00 554.55,535.00 561.97,535.00 569.39,535.00 576.81,535.00 584.23,535.00 591.64,535.00 599.06,535.00 606.48,535.00 613.90,535.00 621.32,535.00 628.74,535.00 636.16,535.00 643.58,535.00 650.99,535.00 658.41,535.00 665.83,535.00 673.25,535.00 680.67,535.00 688.09,535.00 695.51,535.00 702.93,535.00 710.34,535.00 717.76,535.00 725.18,535.00 732.60,535.00 740.02,535.00 747.44,535.00 754.86,535.00 762.28,535.00 769.69,535.00 777.11,535.00 784.53,535.00 791.95,535.00 799.37,535.00 806.79,535.00 814.21,535.00 821.63,535.00 829.04,535.00 836.46,535.00 843.88,535.00 851.30,535.00 858.72,535.00 866.14,535.00 873.56,535.00 880.98,535.00 888.39,535.00 895.81,535.00 903.23,535.00 910.65,535.00 918.07,535.00 925.49,535.00 932.91,535.00 940.33,535.00 947.74,535.00 955.16,535.00 962.58,535.00 970.00,535.00"/>
<polyline fill="none" stroke="#ff7f0e" stroke-width="1.5" points="80.00,535.00 80.99,535.00 82.23,535.00 84.70,535.00 87.17,535.00 89.64,535.00 92.12,535.00 94.59,535.00 97.06,535.00 99.54,535.00 102.01,535.00 105.72,535.00 109.43,535.00 113.14,535.00 116.85,535.00 120.56,535.00 124.27,535.00 127.97,535.00 131.68,535.00 135.39,535.00 139.10,535.00 142.81,535.00 146.52,535.00 150.23,535.00 153.94,535.00 161.36,535.00 168.78,535.00 176.20,535.00 183.61,535.00 191.03,535.00 198.45,535.00 205.87,535.00 213.29,535.00 220.71,535.00 228.13,535.00 235.55,535.00 242.96,535.00 250.38,535.00 257.80,535.00 265.22,535.00 272.64,535.00 280.06,535.00 287.48,535.00 294.90,535.00 302.31,535.00 309.73,535.00 317.15,535.00 324.57,535.00 331.99,535.00 339.41,535.00 346.83,535.00 354.25,535.00 361.66,535.00 369.08,535.00 376.50,535.00 383.92,535.00 391.34,535.00 398.76,535.00 406.18,535.00 413.60,535.00 421.01,535.00 428.43,535.00 435.85,535.00 443.27,535.00 450.69,535.00 458.11,535.00 465.53,535.00 472.95,535.00 480.36,535.00 487.78,535.00 495.20,535.00 502.62,535.00 510.04,535.00 517.46,535.00 524.88,535.00 532.30,535.00 539.71,535.00 547.13,535.00 554.55,535.00 561.97,535.00 569.39,535.00 576.81,535.00 584.23,535.00 591.64,535.00 599.06,535.00 606.48,535.00 613.90,535.00 621.32,535.00 628.74,535.00 636.16,535.00 643.58,535.00 650.99,535.00 658.41,535.00 665.83,535.00 673.25,535.00 680.67,535.00 688.09,535.00 695.51,535.00 702.93,535.00 710.34,535.00 717.76,535.00 725.18,535.00 732.60,535.00 740.02,535.00 747.44,535.00 754.86,535.00 762.28,535.00 769.69,535.00 777.11,535.00 784.53,535.00 791.95,535.00 799.37,535.00 806.79,535.00 814.21,535.00 821.63,535.00 829.04,535.00 836.46,535.00 843.88,535.00 851.30,535.00 858.72,535.00 866.14,535.00 873.56,535.00 880.98,535.00 888.39,535.00 895.81,535.00 903.23,535.00 910.65,535.00 918.07,535.00 925.49,535.00 932.91,535.00 940.33,535.00 947.74,535.00 955.16,535.00 962.58,535.00 970.00,535.00"/>
<polyline fill="none" stroke="#17becf" stroke-width="1.5" points="80.00,535.00 80.99,535.00 82.23,535.00 84.70,535.00 87.17,535.00 89.64,535.00 92.12,535.00 94.59,535.00 97.06,535.00 99.54,535.00 102.01,535.00 105.72,535.00 109.43,535.00 113.14,535.00 116.85,535.00 120.56,535.00 124.27,535.00 127.97,535.00 131.68,535.00 135.39,535.00 139.10,535.00 142.81,535.00 146.52,535.00 150.23,535.00 153.94,535.00 161.36,535.00 168.78,535.00 176.20,535.00 183.61,535.00 191.03,535.00 198.45,535.00 205.87,535.00 213.29,535.00 220.71,535.00 228.13,535.00 235.55,535.00 242.96,535.00 250.38,535.00 257.80,535.00 265.22,535.00 272.64,535.00 280.06,535.00 287.48,535.00 294.90,535.00 302.31,535.00 309.73,535.00 317.15,535.00 324.57,535.00 331.99,535.00 339.41,535.00 346.83,535.00 354.25,535.00 361.66,535.00 369.08,535.00 376.50,535.00 383.92,535.00 391.34,535.00 398.76,535.00 406.18,535.00 413.60,535.00 421.01,535.00 428.43,535.00 435.85,535.00 443.27,535.00 450.69,535.00 458.11,535.00 465.53,535.00 472.95,535.00 480.36,535.00 487.78,535.00 495.20,535.00 502.62,535.00 510.04,535.00 517.46,535.00 524.88,535.00 532.30,535.00 539.71,535.00 547.13,535.00 554.55,535.00 561.97,535.00 569.39,535.00 576.81,535.00 584.23,535.00 591.64,535.00 599.06,535.00 606.48,535.00 613.90,535.00 621.32,535.00 628.74,535.00 636.16,535.00 643.58,535.00 650.99,535.00 658.41,535.00 665.83,535.00 673.25,535.00 680.67,535.00 688.09,535.00 695.51,535.00 702.93,535.00 710.34,535.00 717.76,535.00 725.18,535.00 732.60,535.00 740.02,535.00 747.44,535.00 754.86,535.00 762.28,535.00 769.69,535.00 777.11,535.00 784.53,535.00 791.95,535.00 799.37,535.00 806.79,535.00 814.21,535.00 821.63,535.00 829.04,535.00 836.46,535.00 843.88,535.00 851.30,535.00 858.72,535.00 866.14,535.00 873.56,535.00 880.98,535.00 888.39,535.00 895.81,535.00 903.23,535.00 910.65,535.00 918.07,535.00 925.49,535.00 932.91,535.00 940.33,535.00 947.74,535.00 955.16,535.00 962.58,535.00 970.00,535.00"/>
</svg>