<svg xmlns="http://www.w3.org/2000/svg" width="1000" height="600">
<rect width="100%" height="100%" fill="white"/>
<text x="500.0" y="28" text-anchor="middle" font-size="18">EGG production dynamics - Water rate</text>
<line x1="80" y1="535" x2="970" y2="535" stroke="black"/>
<line x1="80" y1="55" x2="80" y2="535" stroke="black"/>
<text x="500.0" y="580" text-anchor="middle" font-size="14">Time (days)</text>
<text x="18" y="300.0" text-anchor="middle" font-size="14" transform="rotate(-90 18 300.0)">Water rate</text>
<polyline fill="none" stroke="#1f77b4" stroke-width="1.5" points="80.00,55.00 80.99,55.00 82.23,55.00 84.70,55.00 87.17,55.00 89.64,55.00 92.12,55.00 94.59,55.00 97.06,55.00 99.54,55.00 102.01,55.00 105.72,55.00 109.43,55.00 113.14,55.00 116.85,55.00 120.56,55.00 124.27,55.00 127.97,55.00 131.68,55.00 135.39,55.00 139.10,55.00 142.81,55.00 146.52,55.00 150.23,55.00 153.94,55.00 161.36,55.00 168.78,55.00 176.20,55.00 183.61,55.00 191.03,55.00 198.45,55.00 205.87,55.00 213.29,55.00 220.71,55.00 228.13,55.00 235.55,55.00 242.96,55.00 250.38,55.00 257.80,55.00 265.22,55.00 272.64,55.00 280.06,55.00 287.48,55.00 294.90,55.00 302.31,55.00 309.73,55.00 317.15,55.00 324.57,55.00 331.99,55.00 339.41,55.00 346.83,55.00 354.25,55.00 361.66,55.00 369.08,55.00 376.50,55.00 383.92,55.00 391.34,55.00 398.76,55.00 406.18,55.00 413.60,55.00 421.01,55.00 428.43,55.00 435.85,55.00 443.27,55.00 450.69,55.00 458.11,55.00 465.53,55.00 472.95,55.00 480.36,55.00 487.78,55.00 495.20,55.00 502.62,55.00 510.04,55.00 517.46,55.00 524.88,55.00 532.30,55.00 539.71,55.00 547.13,55.00 554.55,55.00 561.97,55.00 569.39,55.00 576.81,55.00 584.23,55.00 591.64,55.00 599.06,55.00 606.48,55.00 613.90,55.00 621.32,55.00 628.74,55.00 636.16,55.00 643.58,55.00 650.99,55.00 658.41,55.00 665.83,55.00 673.25,55.00 680.67,55.00 688.09,55.00 695.51,55.00 702.93,55.00 710.34,55.00 717.76,55.00 725.18,55.00 732.60,55.00 740.02,55.00 747.44,55.00 754.86,55.00 762.28,55.00 769.69,55.00 777.11,55.00 784.53,55.00 791.95,55.00 799.37,55.00 806.79,55.00 814.21,55.00 821.63,55.00 829.04,55.00 836.46,55.00 843.88,55.00 851.30,55.00 858.72,55.00 866.14,55.00 873.56,55.00 880.98,55.00 888.39,55.00 895.81,55.00 903.23,55.00 910.65,55.00 918.07,55.00 925.49,55.00 932.91,55.00 940.33,55.00 947.74,55.00 955.16,55.00 962.58,55.00 970.00,55.00"/>
<polyline fill="none" stroke="#d62728" stroke-width="1.5" points="80.00,55.00 80.99,55.00 82.23,55.00 84.70,55.00 87.17,55.00 89.64,55.00 92.12,55.00 94.59,55.00 97.06,55.00 99.54,55.00 102.01,55.00 105.72,55.00 109.43,55.00 113.14,55.00 116.85,55.00 120.56,55.00 124.27,55.00 127.97,55.00 131.68,55.00 135.39,55.00 139.10,55.00 142.81,55.00 146.52,55.00 150.23,55.00 153.94,55.00 161.36,55.00 168.78,55.00 176.20,55.00 183.61,55.00 191.03,55.00 198.45,55.00 205.87,55.00 213.29,55.00 220.71,55.00 228.13,55.00 235.55,55.00 242.96,55.00 250.38,55.00 257.80,55.00 265.22,55.00 272.64,55.00 280.06,55.00 287.48,55.00 294.90,55.00 302.31,55.00 309.73,55.00 317.15,55.00 324.57,55.00 331.99,55.00 339.41,55.00 346.83,55.00 354.25,55.00 361.66,55.00 369.08,55.00 376.50,55.00 383.92,55.00 391.34,55.00 398.76,55.00 406.18,55.00 413.60,55.00 421.01,55.00 428.43,55.00 435.85,55.00 443.27,55.00 450.69,55.00 458.11,55.00 465.53,55.00 472.95,55.00 480.36,55.00 487.78,55.00 495.20,55.00 502.62,55.00 510.04,55.00 517.46,55.00 524.88,55.00 532.30,55.00 539.71,55.00 547.13,55.00 554.55,55.00 561.97,55.00 569.39,55.00 576.81,55.00 584.23,55.00 591.64,55.00 599.06,55.00 606.48,55.00 613.90,55.00 621.32,55.00 628.74,55.00 636.16,55.00 643.58,55.00 650.99,55.00 658.41,55.00 665.83,55.00 673.25,55.00 680.67,55.00 688.09,55.00 695.51,55.00 702.93,55.00 710.34,55.00 717.76,55.00 725.18,55.00 732.60,55.00 740.02,55.00 747.44,55.00 754.86,55.00 762.28,55.00 769.69,55.00 777.11,55.00 784.53,55.00 791.95,55.00 799.37,55.00 806.79,55.00 814.21,55.00 821.63,55.00 829.04,55.00 836.46,55.00 843.88,55.00 851.30,55.00 858.72,55.00 866.14,55.00 873.56,55.00 880.98,55.00 888.39,55.00 895.81,55.00 903.23,55.00 910.65,55.00 918.07,55.00 925.49,55.00 932.91,55.00 940.33,55.00 947.74,55.00 955.16,55.00 962.58,55.00 970.00,55.00"/>
<polyline fill="none" stroke="#2ca02c" stroke-width="1.5" points="80.00,55.00 80.99,55.00 82.23,55.00 84.70,55.00 87.17,55.00 89.64,55.00 92.12,55.00 94.59,55.00 97.06,55.00 99.54,55.00 102.01,55.00 105.72,55.00 109.43,55.00 113.14,55.00 116.85,55.00 120.56,55.00 124.27,55.00 127.97,55.00 131.68,55.00 135.39,55.00 139.10,55.00 142.81,55.00 146.52,55.00 150.23,55.00 153.94,55.00 161.36,55.00 168.78,55.00 176.20,55.00 183.61,55.00 191.03,55.00 198.45,55.00 205.87,55.00 213.29,55.00 220.71,55.00 228.13,55.00 235.55,55.00 242.96,55.00 250.38,55.00 257.80,55.00 265.22,55.00 272.64,55.00 280.06,55.00 287.48,55.00 294.90,55.00 302.31,55.00 309.73,55.00 317.15,55.00 324.57,55.00 331.99,55.00 339.41,55.00 346.83,55.00 354.25,55.00 361.66,55.00 369.08,55.00 376.50,55.00 383.92,55.00 391.34,55.00 398.76,55.00 406.18,55.00 413.60,55.00 421.01,55.00 428.43,55.00 435.85,55.00 443.27,55.00 450.69,55.00 458.11,55.00 465.53,55.00 472.95,55.00 480.36,55.00 487.78,55.00 495.20,55.00 502.62,55.00 510.04,55.00 517.46,55.00 524.88,55.00 532.30,55.00 539.71,55.00 547.13,55.00 554.55,55.00 561.97,55.00 569.39,55.00 576.81,55.00 584.23,55.00 591.64,55.00 599.06,55.00 606.48,55.00 613.90,55.00 621.32,55.00 628.74,55.00 636.16,55.00 643.58,55.00 650.99,55.00 658.41,55.00 665.83,55.00 673.25,55.00 680.67,55.00 688.09,55.00 695.51,55.00 702.93,55.00 710.34,55.00 717.76,55.00 725.18,55.00 732.60,55.00 740.02,55.00 747.44,55.00 754.86,55.00 762.28,55.00 769.69,55.00 777.11,55.00 784.53,55.00 791.95,55.00 799.37,55.00 806.79,55.00 814.21,55.00 821.63,55.00 829.04,55.00 836.46,55.00 843.88,55.00 851.30,55.00 858.72,55.00 866.14,55.00 873.56,55.00 880.98,55.00 888.39,55.00 895.81,55.00 903.23,55.00 910.65,55.00 918.07,55.00 925.49,55.00 932.91,55.00 940.33,55.00 947.74,55.00 955.16,55.00 962.58,55.00 970.00,55.00"/>
<polyline fill="none" stroke="#9467bd" stroke-width="1.5" points="80.00,55.00 80.99,55.00 82.23,55.00 84.70,55.00 87.17,55.00 89.64,55.00 92.12,55.00 94.59,55.00 97.06,55.00 99.54,55.00 102.01,55.00 105.72,55.00 109.43,55.00 113.14,55.00 116.85,55.00 120.56,55.00 124.27,55.00 127.97,55.00 131.68,55.00 135.39,55.00 139.10,55.00 142.81,55.00 146.52,55.00 150.23,55.00 153.94,55.00 161.36,55.00 168.78,55.00 176.20,55.00 183.61,55.00 191.03,55.00 198.45,55.00 205.87,55.00 213.29,55.00 220.71,55.00 228.13,55.00 235.55,55.00 242.96,55.00 250.38,55.00 257.80,55.00 265.22,55.00 272.64,55.00 280.06,55.00 287.48,55.00 294.90,55.00 302.31,55.00 309.73,55.00 317.15,55.00 324.57,55.00 331.99,55.00 339.41,55.00 346.83,55.00 354.25,55.00 361.66,55.00 369.08,55.00 376.50,55.00 383.92,55.00 391.34,55.00 398.76,55.00 406.18,55.00 413.60,55.00 421.01,55.00 428.43,55.00 435.85,55.00 443.27,55.00 450.69,55.00 458.11,55.00 465.53,55.00 472.95,55.00 480.36,55.00 487.78,55.00 495.20,55.00 502.62,55.00 510.04,55.00 517.46,55.00 524.88,55.00 532.30,55.00 539.71,55.00 547.13,55.00 554.55,55.00 561.97,55.00 569.39,55.00 576.81,55.00 584.23,55.00 591.64,55.00 599.06,55.00 606.48,55.00 613.90,55.00 621.32,55.00 628.74,55.00 636.16,55.00 643.58,55.00 650.99,55.00 658.41,55.00 665.83,55.00 673.25,55.00 680.67,55.00 688.09,55.00 695.51,55.00 702.93,55.00 710.34,55.00 717.76,55.00 725.18,55.00 732.60,55.00 740.02,55.00 747.44,55.00 754.86,55.00 762.28,55.00 769.69,55.00 777.11,55.00 784.53,55.00 791.95,55.00 799.37,55.00 806.79,55.00 814.21,55.00 821.63,55.00 829.04,55.00 836.46,55.00 843.88,55.00 851.30,55.00 858.72,55.00 866.14,55.00 873.56,55.00 880.98,55.00 888.39,55.00 895.81,55.00 903.23,55.00 910.65,55.00 918.07,55.00 925.49,55.00 932.91,55.00 940.33,55.00 947.74,55.00 955.16,55.00 962.58,55.00 970.00,55.00"/>
<polyline fill="none" stroke="#ff7f0e" stroke-width="1.5" points="80.00,55.00 80.99,55.00 82.23,55.00 84.70,55.00 87.17,55.00 89.64,55.00 92.12,55.00 94.59,55.00 97.06,55.00 99.54,55.00 102.01,55.00 105.72,55.00 109.43,55.00 113.14,55.00 116.85,55.00 120.56,55.00 124.27,55.00 127.97,55.00 131.68,55.00 135.39,55.00 139.10,55.00 142.81,55.00 146.52,55.00 150.23,55.00 153.94,55.00 161.36,55.00 168.78,55.00 176.20,55.00 183.61,55.00 191.03,55.00 198.45,55.00 205.87,55.00 213.29,55.00 220.71,55.00 228.13,55.00 235.55,55.00 242.96,55.00 250.38,55.00 257.80,55.00 265.22,55.00 272.64,55.00 280.06,55.00 287.48,55.00 294.90,55.00 302.31,55.00 309.73,55.00 317.15,55.00 324.57,55.00 331.99,55.00 339.41,55.00 346.83,55.00 354.25,55.00 361.66,55.00 369.08,55.00 376.50,55.00 383.92,55.00 391.34,55.00 398.76,55.00 406.18,55.00 413.60,55.00 421.01,55.00 428.43,55.00 435.85,55.00 443.27,55.00 450.69,55.00 458.11,55.00 465.53,55.00 472.95,55.00 480.36,55.00 487.78,55.00 495.20,55.00 502.62,55.00 510.04,55.00 517.46,55.00 524.88,55.00 532.30,55.00 539.71,55.00 547.13,55.00 554.55,55.00 561.97,55.00 569.39,55.00 576.81,55.00 584.23,55.00 591.64,55.00 599.06,55.00 606.48,55.00 613.90,55.00 621.32,55.00 628.74,55.00 636.16,55.00 643.58,55.00 650.99,55.00 658.41,55.00 665.83,55.00 673.25,55.00 680.67,55.00 688.09,55.00 695.51,55.00 702.93,55.00 710.34,55.00 717.76,55.00 725.18,55.00 732.60,55.00 740.02,55.00 747.44,55.00 754.86,55.00 762.28,55.00 769.69,55.00 777.11,55.00 784.53,55.00 791.95,55.00 799.37,55.00 806.79,55.00 814.21,55.00 821.63,55.00 829.04,55.00 836.46,55.00 843.88,55.00 851.30,55.00 858.72,55.00 866.14,55.00 873.56,55.00 880.98,55.00 888.39,55.00 895.81,55.00 903.23,55.00 910.65,55.00 918.07,55.00 925.49,55.00 932.91,55.00 940.33,55.00 947.74,55.00 955.16,55.00 962.58,55.00 970.00,55.00"/>
<polyline fill="none" stroke="#17becf" stroke-width="1.5" points="80.00,55.00 80.99,55.00 82.23,55.00 84.70,55.00 87.17,55.00 89.64,55.00 92.12,55.00 94.59,55.00 97.06,55.00 99.54,55.00 102.01,55.00 105.72,55.00 109.43,55.00 113.14,55.00 116.85,55.00 120.56,55.00 124.27,55.00 127.97,55.00 131.68,55.00 135.39,55.00 139.10,55.00 142.81,55.00 146.52,55.00 150.23,55.00 153.94,55.00 161.36,55.00 168.78,55.00 176.20,55.00 183.61,55.00 191.03,55.00 198.45,55.00 205.87,55.00 213.29,55.00 220.71,55.00 228.13,55.00 235.55,55.00 242.96,55.00 250.38,55.00 257.80,55.00 265.22,55.00 272.64,55.00 280.06,55.00 287.48,55.00 294.90,55.00 302.31,55.00 309.73,55.00 317.15,55.00 324.57,55.00 331.99,55.00 339.41,55.00 346.83,55.00 354.25,55.00 361.66,55.00 369.08,55.00 376.50,55.00 383.92,55.00 391.34,55.00 398.76,55.00 406.18,55.00 413.60,55.00 421.01,55.00 428.43,55.00 435.85,55.00 443.27,55.00 450.69,55.00 458.11,55.00 465.53,55.00 472.95,55.00 480.36,55.00 487.78,55.00 495.20,55.00 502.62,55.00 510.04,55.00 517.46,55.00 524.88,55.00 532.30,55.00 539.71,55.00 547.13,55.00 554.55,55.00 561.97,55.00 569.39,55.00 576.81,55.00 584.23,55.00 591.64,55.00 599.06,55.00 606.48,55.00 613.90,55.00 621.32,55.00 628.74,55.00 636.16,55.00 643.58,55.00 650.99,55.00 658.41,55.00 665.83,55.00 673.25,55.00 680.67,55.00 688.09,55.00 695.51,55.00 702.93,55.00 710.34,55.00 717.76,55.00 725.18,55.00 732.60,55.00 740.02,55.00 747.44,55.00 754.86,55.00 762.28,55.00 769.69,55.00 777.11,55.00 784.53,55.00 791.95,55.00 799.37,55.00 806.79,55.00 814.21,55.00 821.63,55.00 829.04,55.00 836.46,55.00 843.88,55.00 851.30,55.00 858.72,55.00 866.14,55.00 873.56,55.00 880.98,55.00 888.39,55.00 895.81,55.00 903.23,55.00 910.65,55.00 918.07,55.00 925.49,55.00 932.91,55.00 940.33,55.00 947.74,55.00 955.16,55.00 962.58,55.00 970.00,55.00"/>
<polyline fill="none" stroke="#1f77b4" stroke-width="1.5" points="80.00,55.00 80.99,55.00 82.23,55.00 84.70,55.00 87.17,55.00 89.64,55.00 92.12,55.00 94.59,55.00 97.06,55.00 99.54,55.00 102.01,55.00 105.72,55.00 109.43,55.00 113.14,55.00 116.85,55.00 120.56,55.00 124.27,55.00 127.97,55.00 131.68,55.00 135.39,55.00 139.10,55.00 142.81,55.00 146.52,55.00 150.23,55.00 153.94,55.00 161.36,55.00 168.78,55.00 176.20,55.00 183.61,55.00 191.03,55.00 198.45,55.00 205.87,55.00 213.29,55.00 220.71,55.00 228.13,55.00 235.55,55.00 242.96,55.00 250.38,55.00 257.80,55.00 265.22,55.00 272.64,55.00 280.06,55.00 287.48,55.00 294.90,55.00 302.31,55.00 309.73,55.00 317.15,55.00 324.57,55.00 331.99,55.00 339.41,55.00 346.83,55.00 354.25,55.00 361.66,55.00 369.08,55.00 376.50,55.00 383.92,55.00 391.34,55.00 398.76,55.00 406.18,55.00 413.60,55.00 421.01,55.00 428.43,55.00 435.85,55.00 443.27,55.00 450.69,55.00 458.11,55.00 465.53,55.00 472.95,55.00 480.36,55.00 487.78,55.00 495.20,55.00 502.62,55.00 510.04,55.00 517.46,55.00 524.88,55.00 532.30,55.00 539.71,55.00 547.13,55.00 554.55,55.00 561.97,55.00 569.39,55.00 576.81,55.00 584.23,55.00 591.64,55.00 599.06,55.00 606.48,55.00 613.90,55.00 621.32,55.00 628.74,55.00 636.16,55.00 643.58,55.00 650.99,55.00 658.41,55.00 665.83,55.00 673.25,55.00 680.67,55.00 688.09,55.00 695.51,55.00 702.93,55.00 710.34,55.00 717.76,55.00 725.18,55.00 732.60,55.00 740.02,55.00 747.44,55.00 754.86,55.00 762.28,55.00 769.69,55.00 777.11,55.00 784.53,55.00 791.95,55.00 799.37,55.00 806.79,55.00 814.21,55.00 821.63,55.00 829.04,55.00 836.46,55.00 843.88,55.00 851.30,55.00 858.72,55.00 866.14,55.00 873.56,55.00 880.98,55.00 888.39,55.00 895.81,55.00 903.23,55.00 910.65,55.00 918.07,55.00 925.49,55.00 932.91,55.00 940.33,55.00 947.74,55.00 955.16,55.00 962.58,55.00 970.00,55.00"/>
<polyline fill="none" stroke="#d62728" stroke-width="1.5" points="80.00,55.00 80.99,55.00 82.23,55.00 84.70,55.00 87.17,55.00 89.64,55.00 92.12,55.00 94.59,55.00 97.06,55.00 99.54,55.00 102.01,55.00 105.72,55.00 109.43,55.00 113.14,55.00 116.85,55.00 120.56,55.00 124.27,55.00 127.97,55.00 131.68,55.00 135.39,55.00 139.10,55.00 142.81,55.00 146.52,55.00 150.23,55.00 153.94,55.00 161.36,55.00 168.78,55.00 176.20,55.00 183.61,55.00 191.03,55.00 198.45,55.00 205.87,55.00 213.29,55.00 220.71,55.00 228.13,55.00 235.55,55.00 242.96,55.00 250.38,55.00 257.80,55.00 265.22,55.00 272.64,55.00 280.06,55.00 287.48,55.00 294.90,55.00 302.31,55.00 309.73,55.00 317.15,55.00 324.57,55.00 331.99,55.00 339.41,55.00 346.83,55.00 354.25,55.00 361.66,55.00 369.08,55.00 376.50,55.00 383.92,55.00 391.34,55.00 398.76,55.00 406.18,55.00 413.60,55.00 421.01,55.00 428.43,55.00 435.85,55.00 443.27,55.00 450.69,55.00 458.11,55.00 465.53,55.00 472.95,55.00 480.36,55.00 487.78,55.00 495.20,55.00 502.62,55.00 510.04,55.00 517.46,55.00 524.88,55.00 532.30,55.00 539.71,55.00 547.13,55.00 554.55,55.00 561.97,55.00 569.39,55.00 576.81,55.00 584.23,55.00 591.64,55.00 599.06,55.00 606.48,55.00 613.90,55.00 621.32,55.00 628.74,55.00 636.16,55.00 643.58,55.00 650.99,55.00 658.41,55.00 665.83,55.00 673.25,55.00 680.67,55.00 688.09,55.00 695.51,55.00 702.93,55.00 710.34,55.00 717.76,55.00 725.18,55.00 732.60,55.00 740.02,55.00 747.44,55.00 754.86,55.00 762.28,55.00 769.69,55.00 777.11,55.00 784.53,55.00 791.95,55.00 799.37,55.00 806.79,55.00 814.21,55.00 821.63,55.00 829.04,55.00 836.46,55.00 843.88,55.00 851.30,55.00 858.72,55.00 866.14,55.00 873.56,55.00 880.98,55.00 888.39,55.00 895.81,55.00 903.23,55.00 910.65,55.00 918.07,55.00 925.49,55.00 932.91,55.00 940.33,55.00 947.74,55.00 955.16,55.00 962.58,55.00 970.00,55.00"/>
<polyline fill="none" stroke="#2ca02c" stroke-width="1.5" points="80.00,152.62 80.99,152.62 82.23,152.62 84.70,152.62 87.17,152.62 89.64,152.62 92.12,152.62 94.59,152.62 97.06,152.62 99.54,152.62 102.01,152.62 105.72,152.62 109.43,152.62 113.14,152.62 116.85,152.62 120.56,152.62 124.27,152.62 127.97,152.62 131.68,152.62 135.39,152.62 139.10,152.62 142.81,152.62 146.52,152.62 150.23,152.62 153.94,152.62 161.36,152.62 168.78,152.91 176.20,156.63 183.61,163.70 191.03,172.51 198.45,180.30 205.87,188.39 213.29,198.61 220.71,210.77 228.13,223.49 235.55,236.47 242.96,246.92 250.38,255.11 257.80,262.10 265.22,268.36 272.64,273.88 280.06,278.55 287.48,282.34 294.90,285.56 302.31,288.43 309.73,291.14 317.15,293.62 324.57,296.03 331.99,298.44 339.41,300.76 346.83,302.98 354.25,305.25 361.66,307.39 369.08,309.30 376.50,310.97 383.92,312.45 391.34,313.72 398.76,314.80 406.18,315.70 413.60,316.40 421.01,316.93 428.43,317.32 435.85,317.60 443.27,317.82 450.69,317.98 458.11,318.15 465.53,318.24 472.95,318.29 480.36,318.32 487.78,318.35 495.20,318.36 502.62,318.37 510.04,318.36 517.46,318.35 524.88,318.33 532.30,318.30 539.71,318.28 547.13,318.27 554.55,318.26 561.97,318.24 569.39,318.21 576.81,318.16 584.23,318.10 591.64,318.04 599.06,317.97 606.48,317.91 613.90,317.84 621.32,317.77 628.74,317.70 636.16,317.65 643.58,317.59 650.99,317.53 658.41,317.47 665.83,317.41 673.25,317.34 680.67,317.27 688.09,317.20 695.51,317.12 702.93,317.04 710.34,316.96 717.76,316.89 725.18,316.83 732.60,316.77 740.02,316.70 747.44,316.64 754.86,316.58 762.28,316.51 769.69,316.44 777.11,316.37 784.53,316.30 791.95,316.23 799.37,316.17 806.79,316.10 814.21,316.03 821.63,315.96 829.04,315.90 836.46,315.83 843.88,315.77 851.30,315.72 858.72,315.67 866.14,315.63 873.56,315.60 880.98,315.57 888.39,315.55 895.81,315.52 903.23,315.50 910.65,315.47 918.07,315.45 925.49,315.43 932.91,315.41 940.33,315.38 947.74,315.35 955.16,315.33 962.58,315.30 970.00,315.28"/>
<polyline fill="none" stroke="#9467bd" stroke-width="1.5" points="80.00,152.62 80.99,152.62 82.23,152.62 84.70,152.62 87.17,152.62 89.64,152.62 92.12,152.62 94.59,152.62 97.06,152.62 99.54,152.62 102.01,152.62 105.72,152.62 109.43,152.62 113.14,152.62 116.85,154.83 120.56,163.92 124.27,174.14 127.97,183.03 131.68,189.86 135.39,197.00 139.10,206.52 142.81,216.59 146.52,226.27 150.23,236.69 153.94,248.53 161.36,271.37 168.78,293.56 176.20,317.14 183.61,338.22 191.03,356.49 198.45,371.76 205.87,393.14 213.29,416.16 220.71,435.25 228.13,449.22 235.55,458.12 242.96,462.85 250.38,466.92 257.80,471.32 265.22,474.48 272.64,476.93 280.06,478.83 287.48,480.29 294.90,481.40 302.31,482.21 309.73,482.84 317.15,483.10 324.57,483.18 331.99,483.12 339.41,483.01 346.83,482.90 354.25,482.74 361.66,482.64 369.08,482.78 376.50,483.17 383.92,483.86 391.34,484.92 398.76,486.48 406.18,488.47 413.60,490.72 421.01,493.12 428.43,495.37 435.85,497.36 443.27,499.14 450.69,500.77 458.11,502.22 465.53,503.58 472.95,504.82 480.36,505.92 487.78,506.88 495.20,507.72 502.62,508.51 510.04,509.30 517.46,510.03 524.88,510.70 532.30,511.29 539.71,511.80 547.13,512.25 554.55,512.65 561.97,513.04 569.39,513.43 576.81,513.84 584.23,514.23 591.64,514.62 599.06,515.03 606.48,515.45 613.90,515.88 621.32,516.33 628.74,516.78 636.16,517.24 643.58,517.70 650.99,518.16 658.41,518.63 665.83,519.12 673.25,519.59 680.67,520.07 688.09,520.56 695.51,521.05 702.93,521.56 710.34,522.06 717.76,522.54 725.18,523.01 732.60,523.48 740.02,523.95 747.44,524.42 754.86,524.87 762.28,525.34 769.69,525.81 777.11,526.27 784.53,526.72 791.95,527.16 799.37,527.59 806.79,528.03 814.21,528.47 821.63,528.90 829.04,529.32 836.46,529.72 843.88,530.11 851.30,530.47 858.72,530.82 866.14,531.15 873.56,531.47 880.98,531.78 888.39,532.08 895.81,532.38 903.23,532.67 910.65,532.96 918.07,533.24 925.49,533.51 932.91,533.78 940.33,534.04 947.74,534.29 955.16,534.53 962.58,534.77 970.00,535.00"/>
<polyline fill="none" stroke="#ff7f0e" stroke-width="1.5" points="80.00,152.62 80.99,152.62 82.23,152.62 84.70,152.62 87.17,152.62 89.64,152.62 92.12,152.62 94.59,152.62 97.06,152.62 99.54,152.62 102.01,152.62 105.72,152.62 109.43,152.62 113.14,152.62 116.85,152.62 120.56,152.62 124.27,152.62 127.97,152.62 131.68,152.62 135.39,152.62 139.10,152.62 142.81,152.62 146.52,152.62 150.23,152.62 153.94,152.62 161.36,152.62 168.78,152.62 176.20,152.62 183.61,152.62 191.03,152.62 198.45,152.62 205.87,152.62 213.29,152.93 220.71,156.36 228.13,163.63 235.55,171.91 242.96,178.69 250.38,184.63 257.80,189.98 265.22,194.46 272.64,198.33 280.06,201.81 287.48,205.05 294.90,207.90 302.31,210.42 309.73,212.74 317.15,214.93 324.57,216.96 331.99,218.76 339.41,220.40 346.83,221.87 354.25,223.21 361.66,224.43 369.08,225.56 376.50,226.62 383.92,227.57 391.34,228.42 398.76,229.16 406.18,229.79 413.60,230.36 421.01,230.89 428.43,231.36 435.85,231.81 443.27,232.23 450.69,232.62 458.11,233.00 465.53,233.33 472.95,233.65 480.36,233.96 487.78,234.26 495.20,234.55 502.62,234.85 510.04,235.16 517.46,235.46 524.88,235.75 532.30,236.06 539.71,236.37 547.13,236.67 554.55,236.97 561.97,237.27 569.39,237.55 576.81,237.83 584.23,238.11 591.64,238.40 599.06,238.68 606.48,238.94 613.90,239.20 621.32,239.44 628.74,239.67 636.16,239.88 643.58,240.09 650.99,240.31 658.41,240.51 665.83,240.70 673.25,240.88 680.67,241.05 688.09,241.21 695.51,241.36 702.93,241.50 710.34,241.64 717.76,241.78 725.18,241.91 732.60,242.04 740.02,242.16 747.44,242.27 754.86,242.38 762.28,242.48 769.69,242.57 777.11,242.66 784.53,242.74 791.95,242.82 799.37,242.91 806.79,242.98 814.21,243.05 821.63,243.12 829.04,243.18 836.46,243.25 843.88,243.33 851.30,243.41 858.72,243.49 866.14,243.57 873.56,243.64 880.98,243.70 888.39,243.77 895.81,243.83 903.23,243.89 910.65,243.94 918.07,243.99 925.49,244.04 932.91,244.10 940.33,244.16 947.74,244.22 955.16,244.27 962.58,244.32 970.00,244.37"/>
<polyline fill="none" stroke="#17becf" stroke-width="1.5" points="80.00,152.62 80.99,152.62 82.23,152.62 84.70,152.62 87.17,152.62 89.64,152.62 92.12,152.62 94.59,152.62 97.06,152.62 99.54,152.62 102.01,152.62 105.72,152.62 109.43,152.62 113.14,152.62 116.85,152.62 120.56,152.62 124.27,152.62 127.97,152.62 131.68,152.62 135.39,152.62 139.10,152.62 142.81,152.62 146.52,152.62 150.23,152.62 153.94,152.62 161.36,152.62 168.78,152.62 176.20,152.62 183.61,152.62 191.03,152.62 198.45,152.62 205.87,154.48 213.29,162.95 220.71,171.29 228.13,178.49 235.55,184.76 242.96,189.78 250.38,194.55 257.80,200.09 265.22,205.67 272.64,210.68 280.06,215.76 287.48,220.50 294.90,224.54 302.31,228.30 309.73,232.07 317.15,235.14 324.57,237.85 331.99,240.28 339.41,242.46 346.83,244.51 354.25,246.42 361.66,248.24 369.08,249.94 376.50,251.55 383.92,253.17 391.34,254.73 398.76,256.20 406.18,257.59 413.60,258.89 421.01,260.07 428.43,261.18 435.85,262.28 443.27,263.31 450.69,264.29 458.11,265.19 465.53,266.07 472.95,266.88 480.36,267.64 487.78,268.37 495.20,269.08 502.62,269.74 510.04,270.36 517.46,270.96 524.88,271.52 532.30,272.05 539.71,272.54 547.13,273.02 554.55,273.47 561.97,273.89 569.39,274.29 576.81,274.66 584.23,275.01 591.64,275.34 599.06,275.63 606.48,275.89 613.90,276.14 621.32,276.36 628.74,276.57 636.16,276.75 643.58,276.92 650.99,277.06 658.41,277.18 665.83,277.29 673.25,277.40 680.67,277.50 688.09,277.59 695.51,277.67 702.93,277.73 710.34,277.77 717.76,277.81 725.18,277.83 732.60,277.86 740.02,277.87 747.44,277.88 754.86,277.89 762.28,277.88 769.69,277.87 777.11,277.87 784.53,277.86 791.95,277.85 799.37,277.83 806.79,277.81 814.21,277.78 821.63,277.75 829.04,277.72 836.46,277.69 843.88,277.65 851.30,277.62 858.72,277.58 866.14,277.56 873.56,277.53 880.98,277.51 888.39,277.49 895.81,277.46 903.23,277.44 910.65,277.41 918.07,277.39 925.49,277.37 932.91,277.34 940.33,277.31 947.74,277.29 955.16,277.26 962.58,277.25 970.00,277.23"/>
</svg>